<?xml version="1.0" standalone="no"?>
<!DOCTYPE svg PUBLIC "-//W3C//DTD SVG 20010904//EN"
 "http://www.w3.org/TR/2001/REC-SVG-20010904/DTD/svg10.dtd">
<svg version="1.0" xmlns="http://www.w3.org/2000/svg"
 width="260.000000pt" height="260.000000pt" viewBox="0 0 260.000000 260.000000"
 preserveAspectRatio="xMidYMid meet">
<metadata>
Created by potrace 1.11, written by Peter Selinger 2001-2013
</metadata>
<g transform="translate(0.000000,260.000000) scale(0.100000,-0.100000)"
fill="#000000" stroke="none">
<path d="M466 2260 c-3 -14 -8 -47 -11 -73 -4 -27 -8 -57 -10 -66 -2 -10 -7
-42 -10 -72 -11 -76 -10 -73 -40 -279 -14 -102 -28 -196 -30 -210 -4 -31 -15
-107 -20 -140 -2 -14 -11 -77 -20 -140 -9 -63 -18 -126 -20 -140 -7 -51 -15
-106 -20 -145 -3 -23 -7 -50 -9 -61 -2 -12 -7 -45 -11 -75 -3 -30 -8 -61 -10
-69 -2 -8 -6 -37 -10 -65 -3 -27 -13 -95 -21 -150 -8 -55 -16 -116 -19 -135
-3 -19 -8 -52 -11 -72 l-6 -38 1117 0 1117 0 -6 33 c-3 17 -9 54 -12 82 -3 27
-7 52 -9 55 -2 3 -6 37 -10 75 -4 39 -9 72 -10 75 -2 3 -7 35 -10 70 -4 36 -8
67 -10 70 -2 3 -6 30 -10 60 -3 30 -10 80 -15 110 -6 30 -12 78 -15 105 -4 28
-8 61 -10 75 -2 14 -25 169 -50 345 -53 373 -48 340 -75 525 -12 80 -24 165
-27 190 -8 68 -9 69 -15 75 -3 4 -380 7 -837 8 l-831 2 -4 -25z m482 -274 c82
-43 102 -155 38 -215 -24 -22 -24 -23 -10 -84 54 -232 182 -377 334 -379 65 0
114 25 180 92 64 64 110 153 139 265 l19 75 -29 36 c-16 20 -30 46 -31 58 0
11 -2 28 -3 36 -6 59 54 121 123 128 87 8 152 -49 152 -133 0 -43 -28 -98 -57
-113 -13 -7 -22 -32 -32 -84 -37 -206 -157 -391 -299 -459 -269 -131 -549 67
-632 447 -13 62 -24 90 -39 101 -49 33 -65 116 -36 174 32 61 121 87 183 55z"/>
</g>
</svg>
